<?xml version="1.0" standalone="no"?>
<!DOCTYPE svg PUBLIC "-//W3C//DTD SVG 20010904//EN"
 "http://www.w3.org/TR/2001/REC-SVG-20010904/DTD/svg10.dtd">
<svg version="1.0" xmlns="http://www.w3.org/2000/svg"
 width="657.000000pt" height="657.000000pt" viewBox="0 0 657.000000 657.000000"
 preserveAspectRatio="xMidYMid meet">
<metadata>
Created by potrace 1.16, written by Peter Selinger 2001-2019
</metadata>
<g transform="translate(0.000000,657.000000) scale(0.100000,-0.100000)"
fill="#8b6e4e" stroke="none">
<path d="M0 3285 l0 -3285 3285 0 3285 0 0 3285 0 3285 -3285 0 -3285 0 0
-3285z m3711 2868 c13 -16 12 -17 -3 -4 -17 13 -22 21 -14 21 2 0 10 -8 17
-17z m195 7 c9 0 12 -5 8 -12 -4 -6 -3 -8 3 -5 6 4 42 -12 80 -34 117 -72 153
-99 147 -113 -8 -21 25 -94 35 -77 6 9 10 6 15 -14 4 -14 4 -30 0 -36 -3 -6
-3 -22 1 -37 5 -21 8 -23 16 -11 7 10 8 7 4 -12 -4 -15 12 -101 40 -215 25
-104 49 -209 53 -234 6 -43 6 -44 13 -15 4 20 7 7 6 -40 0 -62 -1 -65 -8 -30
-7 35 -7 32 -5 -20 2 -33 1 -54 -1 -47 -6 16 -23 16 -23 -1 0 -8 -7 -14 -15
-14 -10 0 -12 4 -5 12 6 7 3 11 -11 11 -13 0 -19 -7 -19 -23 0 -28 -21 -30
-45 -3 -10 11 -13 20 -7 20 7 0 11 18 11 48 -2 74 0 92 10 92 5 0 12 -12 15
-26 4 -15 9 -25 11 -22 2 2 -3 35 -11 73 -8 39 -17 92 -20 119 -2 26 -11 64
-19 83 -8 20 -17 52 -19 72 -3 20 -8 63 -11 96 -4 33 -8 71 -10 85 -19 134
-14 125 -75 148 -128 50 -143 53 -195 41 -27 -6 -61 -15 -74 -21 -19 -7 -44
-4 -30 5 2 1 33 17 69 36 36 19 69 38 75 43 18 16 -109 -32 -162 -62 -29 -17
-53 -26 -53 -20 0 17 76 66 140 90 55 21 77 39 48 40 -7 1 -26 8 -43 16 -16 8
-22 12 -13 10 10 -3 20 -1 24 5 3 6 13 8 21 5 8 -3 21 -6 29 -6z m274 -214 c0
-12 -5 -7 -19 24 -11 24 -11 24 3 6 9 -11 16 -24 16 -30z m-234 -90 c22 4 34
2 34 -5 0 -6 -12 -11 -26 -11 -24 0 -24 -1 -10 -22 9 -12 16 -27 16 -33 0 -5
-9 4 -19 21 -11 18 -24 35 -30 38 -6 4 -11 13 -10 19 0 8 2 8 6 -1 3 -9 16
-11 39 -6z m-36 -46 c0 -16 -22 -22 -33 -11 -8 8 -8 11 2 11 7 0 9 4 6 10 -3
6 1 7 9 4 9 -3 16 -10 16 -14z m-46 -23 c5 -20 4 -21 -8 -4 -14 18 -32 24 -21
7 3 -6 -1 -7 -9 -4 -9 3 -16 9 -16 13 0 28 46 17 54 -12z m183 11 c-3 -8 -6
-5 -6 6 -1 11 2 17 5 13 3 -3 4 -12 1 -19z m-2570 -41 c21 -13 45 -33 53 -43
8 -10 0 -6 -19 9 -19 15 -40 26 -47 23 -9 -3 -14 1 -14 12 0 11 -3 13 -8 6
-10 -15 -45 -2 -48 19 -3 19 25 11 83 -26z m2455 -3 l4 -35 -18 23 c-18 24
-22 40 -12 51 12 12 22 -3 26 -39z m-315 -31 c-3 -10 -5 -4 -5 12 0 17 2 24 5
18 2 -7 2 -21 0 -30z m440 -85 c-2 -13 -4 -5 -4 17 -1 22 1 32 4 23 2 -10 2
-28 0 -40z m-2734 -5 c-7 -2 -19 -2 -25 0 -7 3 -2 5 12 5 14 0 19 -2 13 -5z
m50 0 c-7 -2 -19 -2 -25 0 -7 3 -2 5 12 5 14 0 19 -2 13 -5z m214 -35 c-3 -8
-6 -5 -6 6 -1 11 2 17 5 13 3 -3 4 -12 1 -19z m-230 -14 c-3 -3 -12 -4 -19 -1
-8 3 -5 6 6 6 11 1 17 -2 13 -5z m2480 -10 c-3 -3 -12 -4 -19 -1 -8 3 -5 6 6
6 11 1 17 -2 13 -5z m220 -181 c-2 -37 -3 -9 -3 62 0 72 1 102 3 68 2 -34 2
-93 0 -130z m-2460 155 c-3 -8 -6 -5 -6 6 -1 11 2 17 5 13 3 -3 4 -12 1 -19z
m1691 -19 c19 -29 11 -31 -28 -8 -24 15 -30 23 -20 29 17 11 33 4 48 -21z
m-318 8 c0 -2 -15 -16 -32 -33 l-33 -29 29 33 c28 30 36 37 36 29z m436 -29
l29 -33 -32 29 c-31 28 -38 36 -30 36 2 0 16 -15 33 -32z m891 -10 c-3 -8 -6
-5 -6 6 -1 11 2 17 5 13 3 -3 4 -12 1 -19z m-1006 -21 c14 -14 18 -22 10 -25
-9 -3 -9 -7 -1 -18 14 -16 5 -34 -16 -34 -9 0 -38 10 -65 22 -35 15 -46 24
-37 29 10 7 10 9 1 9 -7 0 -13 5 -13 10 0 6 9 10 20 10 11 0 20 6 20 13 0 20
54 9 81 -16z m-1750 -14 c-12 -20 -14 -14 -5 12 4 9 9 14 11 11 3 -2 0 -13 -6
-23z m89 17 c8 6 24 10 35 9 11 0 2 -6 -20 -14 -22 -8 -41 -15 -42 -15 -2 0
-3 8 -3 18 0 11 3 13 8 5 5 -8 13 -9 22 -3z m75 0 c3 -5 1 -10 -4 -10 -6 0
-11 5 -11 10 0 6 2 10 4 10 3 0 8 -4 11 -10z m2602 -32 c-3 -8 -6 -5 -6 6 -1
11 2 17 5 13 3 -3 4 -12 1 -19z m-760 -4 c-3 -3 -12 -4 -19 -1 -8 3 -5 6 6 6
11 1 17 -2 13 -5z m-107 -49 c-7 -14 -17 -25 -22 -25 -15 0 -8 39 9 49 25 13
29 5 13 -24z m877 3 c-3 -7 -5 -2 -5 12 0 14 2 19 5 13 2 -7 2 -19 0 -25z
m-2854 15 c-7 -2 -21 -2 -30 0 -10 3 -4 5 12 5 17 0 24 -2 18 -5z m2057 -29
c0 -23 -19 -25 -30 -4 -14 26 -4 45 16 29 8 -6 14 -17 14 -25z m90 -37 c0 -4
-6 -2 -14 5 -8 7 -12 16 -10 20 2 4 0 9 -6 13 -5 3 -10 14 -10 23 1 16 39 -43
40 -61z m-385 46 c19 -9 35 -20 35 -25 0 -12 -9 -10 -65 11 -37 14 -44 20 -30
24 11 2 21 5 22 6 1 0 18 -7 38 -16z m-1878 -45 c-3 -7 -5 -2 -5 12 0 14 2 19
5 13 2 -7 2 -19 0 -25z m2606 15 c-7 -2 -19 -2 -25 0 -7 3 -2 5 12 5 14 0 19
-2 13 -5z m44 -9 c-3 -3 -12 -4 -19 -1 -8 3 -5 6 6 6 11 1 17 -2 13 -5z m-562
-119 c61 -46 70 -55 50 -49 -39 11 -65 28 -65 40 0 7 -3 14 -7 16 -19 8 -42
66 -36 89 6 21 9 17 23 -29 9 -28 25 -59 35 -67z m145 95 c0 -5 -2 -10 -4 -10
-3 0 -8 5 -11 10 -3 6 -1 10 4 10 6 0 11 -4 11 -10z m307 -37 c-3 -10 -5 -2
-5 17 0 19 2 27 5 18 2 -10 2 -26 0 -35z m-1040 5 c-3 -8 -6 -5 -6 6 -1 11 2
17 5 13 3 -3 4 -12 1 -19z m338 -38 c135 -90 130 -85 129 -127 0 -21 5 -41 10
-45 7 -5 6 -8 -2 -8 -7 0 -10 -4 -7 -10 3 -5 1 -10 -4 -10 -6 0 -11 5 -11 11
0 14 -26 39 -34 32 -3 -3 -3 -18 0 -32 4 -22 4 -23 -6 -8 -6 9 -8 27 -4 40 6
22 6 22 -14 2 -14 -14 -17 -24 -10 -32 15 -19 2 -16 -18 5 -17 16 -17 16 -12
-6 4 -12 2 -20 -3 -16 -5 3 -9 15 -8 27 1 12 1 31 0 42 -1 17 -3 18 -11 5 -8
-12 -10 -12 -10 5 0 15 -2 17 -9 6 -14 -21 -28 -5 -35 39 -7 45 -26 54 -26 13
-1 -41 -16 -9 -25 51 -3 27 -9 55 -12 63 -7 19 66 -9 122 -47z m-1460 10 c9
-10 20 -18 24 -17 3 0 16 -4 29 -11 12 -7 27 -10 32 -7 5 3 12 0 16 -6 5 -8 2
-10 -7 -5 -8 4 -3 -1 11 -12 13 -11 27 -19 31 -16 3 2 15 -6 25 -18 11 -12 13
-18 7 -14 -16 9 -16 6 2 -39 18 -42 16 -126 -2 -144 -10 -9 -13 -8 -13 4 0 8
-4 15 -8 15 -4 0 -16 22 -26 50 -24 67 -49 96 -107 125 -48 25 -69 49 -69 80
0 14 2 14 25 -1 15 -10 25 -12 25 -5 0 6 -4 11 -9 11 -5 0 -11 7 -15 15 -8 21
8 19 29 -5z m-338 -32 c-3 -7 -5 -2 -5 12 0 14 2 19 5 13 2 -7 2 -19 0 -25z
m2198 13 c-3 -6 -14 -10 -23 -10 -15 1 -15 2 1 6 9 2 17 9 17 15 0 6 3 9 6 5
3 -3 3 -10 -1 -16z m-48 -7 c-3 -3 -12 -4 -19 -1 -8 3 -5 6 6 6 11 1 17 -2 13
-5z m340 -106 c-3 -8 -6 -5 -6 6 -1 11 2 17 5 13 3 -3 4 -12 1 -19z m410 -20
c-3 -7 -5 -2 -5 12 0 14 2 19 5 13 2 -7 2 -19 0 -25z m-2658 -32 c-3 -3 -11 5
-18 17 -13 21 -12 21 5 5 10 -10 16 -20 13 -22z m2631 2 c0 -6 -6 -5 -15 2 -8
7 -15 14 -15 16 0 2 7 1 15 -2 8 -4 15 -11 15 -16z m51 -5 c13 -16 12 -17 -3
-4 -17 13 -22 21 -14 21 2 0 10 -8 17 -17z m-2374 -35 c-3 -8 -6 -5 -6 6 -1
11 2 17 5 13 3 -3 4 -12 1 -19z m1283 -28 c0 -14 -28 -1 -34 16 -4 12 -2 12
14 4 11 -6 20 -15 20 -20z m-1587 -10 c3 -11 1 -18 -4 -14 -5 3 -9 12 -9 20 0
20 7 17 13 -6z m2237 16 c0 -2 -8 -10 -17 -17 -16 -13 -17 -12 -4 4 13 16 21
21 21 13z m-543 -36 c0 -16 7 -38 16 -48 21 -23 21 -32 3 -32 -18 0 -40 63
-31 90 9 28 12 25 12 -10z m110 -44 c-12 -30 -22 -16 -22 30 l-1 46 15 -30 c7
-17 11 -37 8 -46z m930 -8 c-3 -7 -5 -2 -5 12 0 14 2 19 5 13 2 -7 2 -19 0
-25z m-877 -36 c-14 -2 -30 -8 -37 -14 -8 -6 -10 -4 -7 10 4 15 12 17 37 13
29 -5 30 -6 7 -9z m305 -88 c-11 -42 -21 -62 -27 -56 -12 12 0 94 13 87 4 -3
11 6 15 20 3 14 9 24 12 21 3 -3 -3 -35 -13 -72z m-301 -21 c4 -7 5 -13 3 -13
-6 0 -57 75 -57 84 0 8 29 -31 54 -71z m903 45 c-3 -8 -6 -5 -6 6 -1 11 2 17
5 13 3 -3 4 -12 1 -19z m-959 -16 c4 -24 66 -77 80 -68 24 14 94 -95 86 -135
-4 -22 -4 -22 6 -4 9 17 10 15 7 -12 -2 -18 1 -29 6 -26 17 11 2 -102 -20
-143 -16 -31 -25 -38 -44 -36 -37 6 -351 178 -395 217 -36 33 -37 34 -11 25
16 -6 33 -7 38 -4 6 3 17 0 25 -7 20 -16 31 -2 16 21 -9 16 -9 18 2 14 7 -3
20 2 29 10 8 8 17 12 21 9 3 -4 6 -1 6 6 0 7 5 9 10 6 6 -4 10 -3 9 2 -3 19 2
43 9 43 4 0 18 -18 31 -40 14 -21 28 -37 32 -34 4 2 10 0 14 -6 11 -17 28 -11
20 8 -6 17 -35 159 -35 175 0 5 12 7 28 5 19 -2 28 -9 30 -26z m-1558 5 c0 -2
-12 -14 -27 -28 l-28 -24 24 28 c23 25 31 32 31 24z m-545 -37 c10 -11 16 -20
13 -20 -3 0 -13 9 -23 20 -10 11 -16 20 -13 20 3 0 13 -9 23 -20z m2405 -12
l-1 -33 -14 25 c-18 32 -18 40 0 40 10 0 15 -10 15 -32z m-600 -1 c0 -2 -10
-12 -22 -23 l-23 -19 19 23 c18 21 26 27 26 19z m629 -207 c24 -58 47 -109 52
-114 5 -6 9 -18 9 -28 0 -10 5 -18 11 -18 5 0 8 -4 4 -9 -3 -5 -1 -12 3 -15
12 -7 7 -55 -7 -69 -6 -6 -21 -12 -33 -14 -12 -2 -25 -9 -30 -15 -4 -7 -31
-14 -60 -15 -29 -1 -81 -4 -116 -7 -34 -2 -65 0 -68 5 -8 14 -27 10 -21 -5 6
-14 -22 -14 -55 -1 -11 4 -18 3 -18 -4 0 -6 5 -11 10 -11 6 0 10 -4 10 -10 0
-5 -12 -8 -27 -6 -66 7 -198 87 -188 113 6 18 -41 66 -59 60 -11 -4 -13 -1 -9
10 5 12 2 15 -9 10 -20 -7 -53 27 -45 47 4 10 0 14 -12 11 -10 -2 -24 1 -32 6
-10 6 -10 9 -1 9 6 0 12 10 12 23 0 17 -2 19 -10 7 -8 -12 -10 -12 -16 3 -3
10 -17 17 -31 17 -13 0 -22 -3 -20 -7 3 -5 -40 -8 -94 -9 -107 -1 -120 7 -58
38 20 11 48 16 69 13 41 -4 72 8 45 19 -9 3 -14 10 -11 15 6 9 48 7 65 -3 5
-3 11 0 14 6 3 10 8 10 18 2 8 -6 25 -11 37 -12 13 0 52 -19 85 -40 73 -46
390 -212 406 -212 15 0 49 71 62 131 13 58 2 111 -38 191 -25 52 -28 62 -13
53 6 -3 10 0 11 7 0 10 2 10 6 1 2 -7 9 -13 14 -13 6 0 7 5 4 10 -3 6 2 13 12
16 10 3 25 9 33 14 12 6 18 -4 31 -44 8 -28 35 -98 58 -156z m-2246 143 c-7
-2 -21 -2 -30 0 -10 3 -4 5 12 5 17 0 24 -2 18 -5z m2637 -39 c0 -2 -9 0 -20
6 -11 6 -20 13 -20 16 0 2 9 0 20 -6 11 -6 20 -13 20 -16z m-1202 9 c-10 -2
-26 -2 -35 0 -10 3 -2 5 17 5 19 0 27 -2 18 -5z m2209 -39 c-3 -3 -12 -4 -19
-1 -8 3 -5 6 6 6 11 1 17 -2 13 -5z m76 -1 c-7 -2 -21 -2 -30 0 -10 3 -4 5 12
5 17 0 24 -2 18 -5z m-116 -9 c-3 -3 -12 -4 -19 -1 -8 3 -5 6 6 6 11 1 17 -2
13 -5z m-1187 -7 c0 -2 -10 -12 -22 -23 l-23 -19 19 23 c18 21 26 27 26 19z
m1130 -10 c0 -2 -15 -16 -32 -33 l-33 -29 29 33 c28 30 36 37 36 29z m-2340
-31 c0 -2 -8 -10 -17 -17 -16 -13 -17 -12 -4 4 13 16 21 21 21 13z m-60 -50
c0 -2 -8 -10 -17 -17 -16 -13 -17 -12 -4 4 13 16 21 21 21 13z m148 -25 c9 -5
26 -12 36 -16 27 -8 16 -15 -33 -20 -24 -2 -39 0 -36 6 4 5 -2 9 -12 9 -17 1
-17 2 1 15 23 18 22 17 44 6z m-188 -5 c0 -2 -8 -10 -17 -17 -16 -13 -17 -12
-4 4 13 16 21 21 21 13z m2430 -51 c0 -2 -6 -8 -13 -14 -10 -8 -14 -7 -14 2 0
8 6 14 14 14 7 0 13 -1 13 -2z m-128 -45 c23 -22 36 -40 30 -40 -6 0 -16 9
-22 21 -6 11 -26 29 -43 39 -18 11 -26 20 -19 20 8 0 32 -18 54 -40z m409 23
c13 -16 12 -17 -3 -4 -10 7 -18 15 -18 17 0 8 8 3 21 -13z m-2581 -2 c0 -11
-49 -21 -55 -11 -2 4 -2 10 2 14 10 9 53 7 53 -3z m2160 -46 c7 -8 10 -18 6
-22 -3 -3 -6 -1 -6 6 0 7 -4 9 -10 6 -5 -3 -10 -1 -10 6 0 6 -8 18 -17 26 -17
13 -16 13 3 4 11 -5 27 -17 34 -26z m160 31 c0 -2 -8 -10 -17 -17 -16 -13 -17
-12 -4 4 13 16 21 21 21 13z m-2960 -16 c-19 -4 -27 -8 -17 -9 29 -2 31 -3 60
-17 15 -8 25 -19 22 -24 -3 -4 1 -10 7 -13 7 -2 -5 -7 -27 -11 -26 -5 -41 -4
-43 4 -2 6 -15 23 -28 39 -28 33 -23 41 25 40 l36 -2 -35 -7z m350 -5 c0 -2
-10 -9 -22 -15 -22 -11 -22 -10 -4 4 21 17 26 19 26 11z m-157 -12 c-7 -2 -21
-2 -30 0 -10 3 -4 5 12 5 17 0 24 -2 18 -5z m54 -9 c-3 -3 -12 -4 -19 -1 -8 3
-5 6 6 6 11 1 17 -2 13 -5z m2784 -41 c13 -16 12 -17 -3 -4 -17 13 -22 21 -14
21 2 0 10 -8 17 -17z m-23 -31 c6 -18 -15 -14 -22 4 -4 10 -1 14 6 12 6 -2 14
-10 16 -16z m-2658 -19 c0 -5 -22 -21 -48 -37 -104 -65 -155 -96 -158 -96 -1
0 -15 11 -30 25 -15 14 -41 29 -58 33 -23 6 -32 15 -34 33 -2 17 0 20 6 11 7
-10 26 -13 65 -10 42 3 54 1 50 -9 -3 -7 2 -13 11 -13 15 0 21 12 17 34 -1 5
5 3 14 -4 8 -7 19 -10 22 -6 4 4 1 11 -6 16 -9 5 4 11 40 18 69 12 109 14 109
5z m2714 -72 c9 -8 26 -28 38 -45 11 -17 0 -8 -25 19 -25 28 -46 57 -46 65 0
9 3 7 9 -5 4 -12 15 -27 24 -34z m-3167 7 c-3 -8 -6 -5 -6 6 -1 11 2 17 5 13
3 -3 4 -12 1 -19z m1478 4 c-3 -3 -11 0 -18 7 -9 10 -8 11 6 5 10 -3 15 -9 12
-12z m-965 -20 c0 -5 -15 -34 -34 -65 -19 -32 -31 -55 -26 -52 5 3 3 -7 -5
-22 -8 -15 -18 -43 -21 -61 l-7 -33 -32 31 -33 32 71 89 c66 82 87 102 87 81z
m2641 -38 c5 -15 12 -24 16 -21 19 20 80 -113 70 -151 -4 -13 -5 -12 -6 4 -1
24 -51 116 -87 162 -15 17 -21 32 -15 32 6 0 16 -12 22 -26z m-121 -70 c23
-75 25 -164 6 -209 -12 -29 -13 -28 -8 23 5 57 -10 71 -29 28 -7 -14 -17 -22
-25 -19 -8 3 -12 8 -9 12 7 13 8 95 1 147 -6 41 -4 54 9 68 9 9 20 16 25 16 5
0 18 -30 30 -66z m-2413 31 c-7 -13 -14 -20 -15 -14 -2 5 2 16 8 24 18 21 20
18 7 -10z m2653 -69 c0 -12 -5 -7 -19 24 -11 24 -11 24 3 6 9 -11 16 -24 16
-30z m-3240 21 c0 -2 -10 -12 -22 -23 l-23 -19 19 23 c18 21 26 27 26 19z m75
-87 c1 -38 -6 -46 -37 -41 -5 0 -8 -3 -8 -8 0 -5 -18 -22 -40 -39 -22 -16 -37
-32 -33 -35 3 -4 1 -7 -5 -7 -8 0 -10 12 -7 34 4 36 90 140 106 130 5 -3 9 0
9 7 0 32 14 -6 15 -41z m457 -37 c0 -66 -2 -79 -17 -81 -36 -8 -36 21 2 157 8
30 15 -1 15 -76z m2715 65 c-3 -8 -6 -5 -6 6 -1 11 2 17 5 13 3 -3 4 -12 1
-19z m-2650 -50 c-3 -8 -6 -5 -6 6 -1 11 2 17 5 13 3 -3 4 -12 1 -19z m-747
-51 c0 -2 -15 -16 -32 -33 l-33 -29 29 33 c28 30 36 37 36 29z m757 -29 c-3
-7 -5 -2 -5 12 0 14 2 19 5 13 2 -7 2 -19 0 -25z m1140 10 c-3 -8 -6 -5 -6 6
-1 11 2 17 5 13 3 -3 4 -12 1 -19z m-1810 -53 c4 -4 3 -5 -4 -2 -6 4 -13 2
-15 -5 -3 -8 -6 -6 -10 4 -7 17 15 19 29 3z m1800 -7 c-3 -8 -6 -5 -6 6 -1 11
2 17 5 13 3 -3 4 -12 1 -19z m-1842 -8 c3 -5 1 -10 -4 -10 -6 0 -11 5 -11 10
0 6 2 10 4 10 3 0 8 -4 11 -10z m-15 -31 c0 -5 -10 -9 -21 -9 -18 0 -19 2 -9
15 12 15 30 12 30 -6z m-140 -2 c0 -2 -12 -14 -27 -28 l-28 -24 24 28 c23 25
31 32 31 24z m877 -19 c-3 -8 -6 -5 -6 6 -1 11 2 17 5 13 3 -3 4 -12 1 -19z
m1969 -10 l29 -33 -32 29 c-31 28 -38 36 -30 36 2 0 16 -15 33 -32z m-1486 19
c0 -2 -12 -14 -27 -28 l-28 -24 24 28 c23 25 31 32 31 24z m617 -74 c-3 -10
-5 -4 -5 12 0 17 2 24 5 18 2 -7 2 -21 0 -30z m1086 -20 c-13 -2 -35 -2 -50 0
-16 2 -5 4 22 4 28 0 40 -2 28 -4z m-3040 -70 c-2 -38 -8 -69 -14 -71 -5 -2
-9 -8 -9 -13 0 -6 5 -7 10 -4 6 3 10 1 10 -5 0 -7 -6 -10 -14 -7 -8 3 -17 3
-19 -1 -2 -4 -2 -2 -1 5 2 7 -1 15 -7 18 -5 4 -6 11 -3 17 5 8 1 9 -10 5 -11
-4 -15 -3 -11 4 4 6 13 8 21 5 17 -6 29 10 12 17 -10 4 -10 8 -1 14 6 4 15 22
19 38 16 68 23 59 17 -22z m1954 35 c-3 -7 -5 -2 -5 12 0 14 2 19 5 13 2 -7 2
-19 0 -25z m-233 -19 c-2 -4 12 -19 32 -34 51 -39 111 -132 95 -148 -10 -9
-11 -8 -5 7 5 13 4 17 -3 13 -12 -8 -86 71 -110 118 -9 16 -27 38 -40 49 -17
13 -21 21 -13 26 12 8 50 -20 44 -31z m-118 -12 c10 -22 24 -46 32 -53 7 -8
14 -26 16 -41 1 -16 8 -27 15 -25 7 1 10 -2 6 -7 -3 -6 8 -39 25 -74 54 -115
27 -107 -41 11 -23 41 -99 214 -99 227 0 1 6 2 14 2 8 0 23 -18 32 -40z m130
-80 c22 -41 13 -41 -22 -2 -17 19 -29 37 -26 40 3 3 -2 5 -11 5 -21 0 -51 45
-41 61 8 14 73 -54 100 -104z m-217 8 c17 -63 35 -101 71 -152 72 -102 258
-273 296 -273 24 0 63 -23 57 -33 -3 -6 -1 -7 5 -3 6 3 47 -12 91 -34 149 -75
305 -115 404 -104 42 5 58 4 53 -4 -3 -6 -20 -13 -36 -17 -16 -4 -52 -26 -79
-51 -45 -40 -70 -56 -57 -36 2 4 -10 6 -29 4 -50 -6 -209 31 -285 66 -19 9
-42 17 -50 18 -8 0 -26 5 -40 9 -46 16 -55 14 -30 -5 14 -10 22 -21 19 -24 -6
-7 -92 37 -134 69 -16 12 -44 29 -61 38 -41 21 -155 139 -204 210 -21 32 -44
79 -50 105 -6 26 -14 57 -17 70 -4 16 -1 22 10 22 17 0 57 -46 57 -66 0 -7 4
-14 8 -16 4 -1 23 -22 42 -45 18 -24 38 -43 43 -43 6 0 3 8 -6 18 -29 32 -96
170 -102 209 -10 69 -13 153 -5 153 4 0 17 -38 29 -85z m-858 68 c-11 -4 -11
-7 0 -14 23 -14 2 -21 -22 -8 -23 12 -23 12 -4 20 11 4 25 8 30 8 6 -1 4 -3
-4 -6z m46 -9 c-3 -3 -12 -4 -19 -1 -8 3 -5 6 6 6 11 1 17 -2 13 -5z m1143
-56 c0 -6 -6 -5 -15 2 -8 7 -12 16 -9 21 3 5 0 9 -5 9 -6 0 -11 6 -11 13 1 14
40 -30 40 -45z m-1803 20 c-3 -8 -6 -5 -6 6 -1 11 2 17 5 13 3 -3 4 -12 1 -19z
m530 16 c-3 -3 -12 -4 -19 -1 -8 3 -5 6 6 6 11 1 17 -2 13 -5z m-100 -30 c-3
-3 -12 -4 -19 -1 -8 3 -5 6 6 6 11 1 17 -2 13 -5z m280 -26 c-3 -7 -5 -2 -5
12 0 14 2 19 5 13 2 -7 2 -19 0 -25z m-830 -13 c-15 -16 -19 -13 -11 9 3 9 10
13 15 10 5 -3 3 -11 -4 -19z m120 -7 c-3 -7 -5 -2 -5 12 0 14 2 19 5 13 2 -7
2 -19 0 -25z m-257 18 c0 -2 -8 -10 -17 -17 -16 -13 -17 -12 -4 4 13 16 21 21
21 13z m964 -42 c3 -8 2 -12 -4 -9 -6 3 -10 10 -10 16 0 14 7 11 14 -7z m-527
0 c-3 -3 -12 -4 -19 -1 -8 3 -5 6 6 6 11 1 17 -2 13 -5z m-470 -26 c-3 -8 -6
-5 -6 6 -1 11 2 17 5 13 3 -3 4 -12 1 -19z m430 16 c-3 -3 -12 -4 -19 -1 -8 3
-5 6 6 6 11 1 17 -2 13 -5z m-90 -20 c-3 -3 -12 -4 -19 -1 -8 3 -5 6 6 6 11 1
17 -2 13 -5z m670 -71 c-2 -16 -4 -3 -4 27 0 30 2 43 4 28 2 -16 2 -40 0 -55z
m-225 50 c-10 -4 -7 -9 8 -20 15 -10 25 -12 32 -5 6 6 6 12 -3 17 -8 5 -10 4
-5 -3 4 -7 2 -12 -3 -12 -14 0 -14 17 -1 25 10 6 32 -10 41 -30 2 -5 7 -9 12
-7 4 1 7 -3 7 -9 0 -6 -34 -9 -97 -8 -102 2 -136 7 -128 18 2 4 -2 8 -10 8 -8
0 -12 -4 -9 -8 3 -5 -11 -8 -31 -7 -21 1 -31 4 -23 9 6 4 16 5 21 2 5 -3 12 0
16 6 4 6 43 15 87 20 99 10 102 11 86 4z m128 -38 c0 -1 -7 -2 -15 -2 -8 0
-12 4 -10 8 3 4 -2 9 -10 13 -8 3 -15 10 -15 16 0 5 11 0 25 -12 14 -12 25
-22 25 -23z m1337 13 c-3 -8 -6 -5 -6 6 -1 11 2 17 5 13 3 -3 4 -12 1 -19z
m10 -110 c-3 -7 -5 -2 -5 12 0 14 2 19 5 13 2 -7 2 -19 0 -25z m-1567 8 c0 -3
-4 -8 -10 -11 -5 -3 -10 -1 -10 4 0 6 5 11 10 11 6 0 10 -2 10 -4z m125 -16
c33 -5 86 -11 117 -12 36 -2 60 -8 63 -16 3 -7 0 -10 -5 -7 -6 3 -10 1 -10 -5
0 -6 -4 -8 -10 -5 -5 3 -10 2 -10 -4 0 -6 -8 -7 -17 -4 -16 6 -16 5 -4 -11 11
-13 16 -14 22 -4 4 7 10 10 13 8 2 -3 -2 -14 -10 -24 -8 -11 -14 -15 -14 -8 0
6 -6 9 -13 7 -7 -3 -46 3 -87 14 -41 11 -69 20 -62 20 14 1 -23 41 -38 41 -7
0 -7 -6 0 -20 7 -14 7 -20 0 -20 -9 0 -12 11 -9 38 0 4 -10 10 -23 14 -20 5
-20 6 7 7 17 0 57 -3 90 -9z m-205 -10 c0 -5 -2 -10 -4 -10 -3 0 -8 5 -11 10
-3 6 -1 10 4 10 6 0 11 -4 11 -10z m55 -19 c-6 -5 -25 10 -25 20 0 5 6 4 14
-3 8 -7 12 -15 11 -17z m-324 -23 c11 -21 11 -22 -4 -9 -10 7 -17 17 -17 22 0
15 9 10 21 -13z m366 16 c-3 -3 -12 -4 -19 -1 -8 3 -5 6 6 6 11 1 17 -2 13 -5z
m-327 -25 c0 -5 7 -9 15 -9 8 0 15 -5 15 -11 0 -6 -7 -8 -16 -5 -10 4 -13 2
-8 -7 5 -8 2 -7 -9 2 -10 8 -15 16 -12 19 3 3 0 11 -7 19 -8 11 -7 12 6 7 9
-3 16 -10 16 -15z m3 -87 c11 -12 16 -25 13 -31 -3 -5 2 -11 11 -13 17 -3 17
-4 0 -10 -13 -6 -31 9 -77 65 -33 40 -60 76 -60 80 0 10 83 -58 113 -91z m614
66 c-3 -8 -6 -5 -6 6 -1 11 2 17 5 13 3 -3 4 -12 1 -19z m-608 -207 c19 -34
36 -73 37 -87 2 -14 21 -56 42 -92 22 -37 50 -87 62 -112 13 -25 30 -50 38
-56 11 -8 12 -13 3 -18 -25 -16 -43 8 -111 146 -38 79 -103 208 -144 288 -42
80 -76 147 -76 149 0 10 118 -163 149 -218z m38 172 c-3 -3 -11 -2 -17 2 -9 6
-9 10 1 16 14 8 27 -7 16 -18z m-318 -60 c-2 -38 -7 -74 -12 -80 -15 -21 -30
-15 -24 10 3 12 11 48 17 80 6 31 14 57 17 57 2 0 3 -30 2 -67z m166 -61 c7
-41 6 -43 -12 -33 -27 14 -57 107 -40 126 10 11 15 7 28 -18 9 -18 20 -52 24
-75z m495 93 c5 -3 20 -8 32 -10 38 -8 128 -38 132 -44 2 -3 -1 -17 -6 -31 -6
-18 -11 -21 -17 -12 -7 11 -11 11 -23 -1 -9 -9 -20 -12 -28 -7 -9 6 -7 10 8
14 21 7 21 36 0 36 -5 0 -6 -4 -3 -10 3 -6 -1 -7 -9 -4 -9 3 -16 12 -16 20 0
15 -29 8 -43 -10 -5 -7 -7 -3 -5 9 3 20 -3 22 -34 10 -13 -5 -18 -2 -18 10 0
10 -8 24 -17 31 -16 13 -15 14 9 10 15 -3 32 -7 38 -11z m-730 -15 c0 -5 -5
-10 -11 -10 -5 0 -7 5 -4 10 3 6 8 10 11 10 2 0 4 -4 4 -10z m136 -54 c-4 -18
-11 -24 -22 -19 -15 5 -15 7 0 15 11 6 14 18 10 41 -4 29 -3 30 7 10 6 -12 9
-33 5 -47z m-29 12 c-3 -7 -5 -2 -5 12 0 14 2 19 5 13 2 -7 2 -19 0 -25z m419
-4 c-3 -8 0 -11 10 -7 7 3 14 0 14 -7 0 -6 4 -9 8 -6 5 3 20 -6 35 -20 15 -14
32 -22 37 -19 6 3 10 1 10 -5 0 -6 5 -8 12 -4 6 4 8 3 5 -3 -3 -5 9 -27 28
-49 19 -21 35 -34 35 -28 0 5 -5 15 -12 22 -9 9 -9 15 0 24 9 9 15 9 24 0 9
-9 9 -12 0 -12 -9 0 -10 -5 -3 -19 6 -10 7 -21 4 -25 -3 -3 2 -16 13 -28 23
-27 15 -22 -100 68 -129 100 -173 138 -153 131 9 -3 17 -2 17 4 0 6 5 7 11 4
6 -4 8 -13 5 -21z m391 -11 c-3 -10 -5 -4 -5 12 0 17 2 24 5 18 2 -7 2 -21 0
-30z m-462 -42 c22 -20 78 -73 125 -118 69 -67 81 -83 67 -89 -11 -4 -25 1
-38 12 -20 18 -20 18 -15 -11 3 -17 13 -36 23 -42 9 -7 12 -13 5 -13 -10 0
-188 213 -217 259 -5 9 -14 19 -20 23 -6 5 -5 8 3 8 7 0 10 5 6 12 -11 17 15
0 61 -41z m1317 -31 c5 0 29 -16 52 -35 46 -37 61 -42 70 -22 3 6 3 2 1 -9 -6
-23 18 -40 37 -27 6 3 8 2 5 -4 -3 -5 15 -22 41 -36 71 -41 288 -148 366 -181
84 -36 70 -45 -29 -21 -70 18 -75 18 -119 1 -26 -10 -52 -19 -59 -20 -6 -1
-17 -5 -24 -9 -6 -4 -30 7 -55 26 -23 17 -56 41 -73 51 -16 11 -39 27 -50 38
-44 40 -80 68 -88 68 -4 0 -24 12 -43 28 -35 28 -48 70 -18 58 8 -3 12 -2 9 4
-11 18 4 11 54 -25 26 -19 51 -35 54 -35 3 0 29 -13 57 -30 27 -16 50 -25 50
-20 0 6 -4 10 -8 10 -13 0 -172 118 -214 158 -21 20 -38 41 -37 47 0 5 3 4 6
-2 2 -7 9 -13 15 -13z m-1511 -48 c19 -44 18 -70 -2 -42 -8 12 -10 10 -6 -7 3
-13 1 -23 -3 -23 -7 0 -23 61 -25 95 0 6 -4 16 -8 22 -6 9 -3 11 8 6 10 -3 26
-26 36 -51z m439 38 c0 -5 -4 -10 -9 -10 -6 0 -13 5 -16 10 -3 6 1 10 9 10 9
0 16 -4 16 -10z m1873 -27 c-7 -2 -19 -2 -25 0 -7 3 -2 5 12 5 14 0 19 -2 13
-5z m125 0 c-16 -2 -40 -2 -55 0 -16 2 -3 4 27 4 30 0 43 -2 28 -4z m-1921
-34 c3 -19 2 -19 -13 -5 -8 9 -12 21 -9 27 9 13 18 4 22 -22z m1974 14 c13
-16 12 -17 -3 -4 -10 7 -18 15 -18 17 0 8 8 3 21 -13z m-1939 -17 c6 4 5 -2
-1 -15 -16 -30 -29 -26 -23 7 3 15 7 21 10 14 2 -6 8 -9 14 -6z m28 -16 c-6
-11 -13 -20 -16 -20 -2 0 0 9 6 20 6 11 13 20 16 20 2 0 0 -9 -6 -20z m-400
-47 c45 -74 50 -88 14 -38 -47 64 -65 95 -57 95 5 0 24 -26 43 -57z m2327 35
c-3 -8 -6 -5 -6 6 -1 11 2 17 5 13 3 -3 4 -12 1 -19z m-2498 -77 c6 -27 21
-73 34 -103 13 -29 30 -68 37 -85 7 -18 16 -33 20 -33 7 0 5 15 -15 95 -12 49
10 17 34 -49 24 -64 19 -76 -26 -76 -17 0 -26 11 -42 54 -30 82 -69 246 -57
246 2 0 9 -22 15 -49z m491 -16 c-24 -25 -46 -45 -49 -45 -3 0 15 20 39 45 24
25 46 45 49 45 3 0 -15 -20 -39 -45z m2468 29 c25 -7 30 -24 7 -24 -40 0 -130
-79 -146 -127 -8 -24 -16 -32 -27 -29 -10 2 -43 7 -76 11 -131 15 -252 42
-271 61 -21 21 -19 34 5 35 23 2 29 3 53 13 9 5 37 9 61 10 24 0 43 3 41 6 -2
3 53 7 122 8 106 3 123 1 112 -11 -13 -14 -26 -17 -66 -17 -12 0 -25 -5 -28
-10 -3 -6 1 -7 9 -4 9 3 16 1 16 -5 0 -18 45 -12 70 9 13 11 43 30 68 43 41
20 43 22 21 28 -13 4 -17 7 -9 8 8 0 25 -2 38 -5z m-302 -22 c-77 -1 -143 1
-147 5 -5 4 58 6 139 3 l147 -5 -139 -3z m211 12 c-3 -3 -12 -4 -19 -1 -8 3
-5 6 6 6 11 1 17 -2 13 -5z m-2459 -69 c-14 -13 -29 -21 -32 -18 -10 10 -7 23
5 23 6 0 17 7 26 15 8 9 18 13 21 10 3 -3 -6 -17 -20 -30z m957 -50 c6 -5 22
-26 36 -45 15 -19 39 -48 53 -65 14 -16 26 -37 26 -45 0 -25 84 -144 103 -146
26 -3 47 -24 47 -45 0 -16 -8 -18 -70 -16 -38 1 -70 6 -70 10 0 5 -5 5 -12 1
-8 -5 -9 -2 -5 10 10 25 -60 183 -80 179 -5 -1 -24 38 -41 86 -26 76 -28 88
-14 87 10 0 22 -5 27 -11z m-2051 -11 c3 -8 2 -12 -4 -9 -6 3 -10 10 -10 16 0
14 7 11 14 -7z m578 -142 c11 -13 10 -14 -9 -3 -21 11 -23 18 -22 89 l2 77 8
-74 c5 -40 14 -81 21 -89z m2523 85 c66 -25 135 -48 154 -52 l35 -7 -28 -15
c-35 -18 -71 -58 -87 -95 -6 -16 -15 -28 -20 -28 -12 0 -11 17 1 41 8 14 8 20
-2 23 -110 29 -177 63 -194 100 -8 17 -12 23 -9 14 2 -10 0 -18 -5 -18 -17 0
-20 18 -5 30 11 9 12 17 5 30 -6 10 -10 21 -10 23 0 11 52 -3 165 -46z m632
-9 c-3 -8 -6 -5 -6 6 -1 11 2 17 5 13 3 -3 4 -12 1 -19z m288 -57 c-35 -4 -53
-9 -43 -13 9 -4 27 -5 40 -2 12 2 16 1 8 -3 -22 -10 -38 -32 -72 -100 -16 -35
-32 -63 -35 -63 -3 0 -3 14 -1 30 5 35 -4 39 -23 10 -14 -20 -15 -20 -102 -2
-49 10 -93 25 -98 33 -6 10 -9 10 -9 2 0 -7 -7 -13 -15 -13 -8 0 -15 7 -15 15
0 14 -14 19 -47 18 -7 -1 -13 3 -13 9 0 5 -4 7 -9 4 -17 -11 -61 12 -55 28 3
8 12 12 20 9 8 -3 14 -1 14 5 0 14 42 20 68 11 14 -5 22 -4 22 2 0 6 5 7 10 4
6 -3 10 -2 10 3 0 5 12 10 27 10 15 0 28 3 30 8 2 5 81 7 175 5 116 -3 153 -7
113 -10z m96 -18 c13 -16 12 -17 -3 -4 -10 7 -18 15 -18 17 0 8 8 3 21 -13z
m-1355 -34 c43 -22 88 -48 99 -58 11 -9 37 -26 58 -37 49 -24 55 -34 23 -34
-31 0 -103 -28 -128 -49 -10 -9 -21 -14 -24 -11 -2 3 -9 -2 -15 -10 -8 -12 -9
-10 -4 6 8 31 -47 124 -75 124 -6 0 -2 -10 10 -22 11 -12 21 -25 21 -30 3 -19
5 -24 13 -36 14 -24 0 -22 -33 3 -43 31 -65 64 -67 97 -1 20 2 25 14 20 12 -4
10 3 -7 27 -20 27 -21 35 -10 42 24 15 43 10 125 -32z m-2023 24 c-7 -2 -19
-2 -25 0 -7 3 -2 5 12 5 14 0 19 -2 13 -5z m-285 -20 c-10 -2 -26 -2 -35 0
-10 3 -2 5 17 5 19 0 27 -2 18 -5z m3679 -25 c-3 -7 -5 -2 -5 12 0 14 2 19 5
13 2 -7 2 -19 0 -25z m-2017 -52 c0 -12 -5 -7 -19 24 -11 24 -11 24 3 6 9 -11
16 -24 16 -30z m1530 14 c0 -5 -2 -10 -4 -10 -3 0 -8 5 -11 10 -3 6 -1 10 4
10 6 0 11 -4 11 -10z m-2620 -14 c0 -2 -8 -10 -17 -17 -16 -13 -17 -12 -4 4
13 16 21 21 21 13z m2130 -26 c0 -5 -4 -10 -10 -10 -5 0 -10 5 -10 10 0 6 5
10 10 10 6 0 10 -4 10 -10z m977 -52 c-3 -7 -5 -2 -5 12 0 14 2 19 5 13 2 -7
2 -19 0 -25z m-2297 -115 c7 -23 9 -49 5 -60 -5 -10 -7 -21 -7 -25 3 -15 -16
-8 -22 8 -8 22 -8 119 1 128 4 4 8 4 9 -1 1 -4 7 -27 14 -50z m1508 13 c122
-47 234 -94 266 -112 16 -10 12 -12 -27 -18 -53 -8 -108 -43 -156 -98 -18 -21
-36 -37 -38 -34 -11 11 68 106 89 106 4 0 8 5 8 10 0 14 -23 8 -36 -10 -9 -10
-15 -11 -25 -3 -8 6 -25 14 -39 18 -14 4 -62 27 -108 52 -64 34 -81 48 -72 57
7 10 6 17 -5 26 -22 19 -19 50 5 50 12 0 73 -20 138 -44z m-969 -33 c5 -10 13
-16 18 -14 4 3 13 -6 20 -20 7 -13 14 -22 17 -19 10 11 96 -130 96 -158 l0
-28 -77 8 c-43 5 -80 13 -81 18 -2 6 -8 8 -13 4 -5 -3 -9 2 -9 10 0 8 -5 18
-10 21 -6 4 -10 3 -9 -2 4 -22 -3 -24 -21 -8 -11 10 -20 31 -20 47 0 29 14 38
24 16 3 -7 2 22 -1 65 l-6 77 31 0 c19 0 35 -7 41 -17z m-1712 -19 c-3 -3 -12
-4 -19 -1 -8 3 -5 6 6 6 11 1 17 -2 13 -5z m-140 -106 c-3 -8 -6 -5 -6 6 -1
11 2 17 5 13 3 -3 4 -12 1 -19z m2840 5 c38 -9 47 -29 24 -52 -19 -19 -26 -19
-22 2 1 5 -2 6 -6 4 -13 -8 -39 16 -48 42 -6 21 -5 23 11 16 11 -4 29 -10 41
-12z m-63 -12 c4 -5 -3 -7 -14 -4 -23 6 -26 13 -6 13 8 0 17 -4 20 -9z m390
-47 c3 -8 2 -12 -4 -9 -6 3 -10 10 -10 16 0 14 7 11 14 -7z m-3 -67 c-8 -8
-11 -5 -11 9 0 27 14 41 18 19 2 -9 -1 -22 -7 -28z m-3153 -42 c-3 -3 -9 2
-12 12 -6 14 -5 15 5 6 7 -7 10 -15 7 -18z m1385 -58 c-3 -4 -7 -56 -9 -115
-4 -113 -7 -152 -12 -152 -5 0 -48 26 -66 40 -10 8 -21 14 -25 13 -3 -1 -15 0
-27 3 -18 5 -20 10 -14 47 3 23 13 58 22 77 32 72 38 92 38 115 0 14 4 25 9
25 12 0 22 -30 14 -43 -9 -15 -11 -127 -2 -122 10 7 39 94 39 120 0 11 6 33
13 48 l12 26 6 -37 c4 -20 5 -41 2 -45z m-1416 47 c-3 -3 -12 -4 -19 -1 -8 3
-5 6 6 6 11 1 17 -2 13 -5z m-60 -10 c-3 -3 -12 -4 -19 -1 -8 3 -5 6 6 6 11 1
17 -2 13 -5z m-140 -20 c-3 -3 -12 -4 -19 -1 -8 3 -5 6 6 6 11 1 17 -2 13 -5z
m-70 -10 c-3 -3 -12 -4 -19 -1 -8 3 -5 6 6 6 11 1 17 -2 13 -5z m2612 -206
c47 -49 89 -88 94 -88 4 0 1 7 -7 16 -9 8 -13 20 -10 26 4 7 2 8 -4 4 -7 -4
-12 -3 -12 2 0 5 -40 51 -90 101 -49 51 -90 100 -90 108 0 11 10 5 32 -16 31
-31 56 -42 42 -19 -5 8 -2 9 9 5 10 -4 17 -2 17 5 0 7 5 6 15 -2 13 -11 13
-15 3 -21 -10 -7 -9 -9 5 -9 9 0 17 -6 17 -12 0 -7 18 -32 40 -56 22 -24 40
-45 40 -48 0 -8 44 -69 53 -72 11 -6 8 -22 -8 -38 -12 -12 -15 -12 -15 -2 -1
8 -7 5 -18 -8 -13 -15 -23 -19 -37 -13 -29 11 -153 10 -200 -2 -81 -20 -78
-20 -64 -3 17 20 18 63 2 76 -7 6 -13 14 -13 19 0 5 -11 32 -23 61 -63 142
-61 165 7 60 42 -66 62 -89 71 -80 2 2 -10 28 -28 57 -57 96 -62 106 -65 128
-2 16 3 23 20 26 18 3 35 -9 78 -57 30 -33 93 -100 139 -148z m-2709 188 c0
-2 -8 -10 -17 -17 -16 -13 -17 -12 -4 4 13 16 21 21 21 13z m1100 -36 c0 -4
-7 -7 -15 -6 -23 3 -26 12 -5 13 11 1 20 -2 20 -7z m-50 -20 c0 -5 -4 -10 -10
-10 -5 0 -10 5 -10 10 0 6 5 10 10 10 6 0 10 -4 10 -10z m2727 -52 c-3 -8 -6
-5 -6 6 -1 11 2 17 5 13 3 -3 4 -12 1 -19z m-2647 -25 c0 -34 -48 -56 -67 -30
-12 14 -13 48 -2 41 4 -2 10 0 14 6 4 6 11 8 16 5 5 -4 9 -1 9 6 0 8 4 8 15
-1 8 -7 15 -19 15 -27z m60 3 c0 -3 -4 -8 -10 -11 -5 -3 -10 -1 -10 4 0 6 5
11 10 11 6 0 10 -2 10 -4z m2540 -59 c0 -2 -17 -19 -37 -38 l-38 -34 34 38
c33 34 41 42 41 34z m-2905 -257 c3 -5 -1 -10 -10 -10 -9 0 -13 -5 -10 -10 4
-6 3 -10 -2 -9 -21 4 -34 -2 -27 -13 5 -7 3 -8 -5 -3 -10 5 -7 13 10 31 27 26
35 28 44 14z m913 -124 c-18 -106 -24 -177 -17 -182 14 -9 21 12 31 97 1 9 8
15 15 12 9 -4 12 -28 12 -80 -1 -41 2 -77 5 -80 3 -4 1 -12 -5 -20 -6 -7 -8
-13 -4 -13 4 0 2 -7 -5 -15 -10 -12 -15 -12 -36 2 -13 8 -24 12 -24 9 0 -4
-10 -1 -22 6 -13 7 -52 24 -87 38 -36 14 -67 32 -69 40 -5 13 -3 13 13 0 17
-14 17 -13 11 10 -6 23 -6 24 7 7 14 -17 15 -17 22 0 5 10 9 23 10 28 0 6 7
24 14 40 7 17 18 49 24 73 6 23 15 42 19 42 4 0 8 7 8 16 0 8 5 12 10 9 6 -3
10 3 10 14 0 14 5 19 15 15 8 -4 15 -13 15 -21 0 -23 20 -4 21 20 0 20 1 21 8
3 4 -11 4 -42 -1 -70z m-983 64 c-3 -5 -11 -10 -16 -10 -6 0 -7 5 -4 10 3 6
11 10 16 10 6 0 7 -4 4 -10z m2197 -218 c50 -97 76 -160 74 -175 -3 -12 -5
-29 -5 -37 -1 -9 -12 -16 -27 -16 -18 -2 -24 2 -20 12 3 8 0 14 -6 14 -6 0 -8
3 -5 6 3 4 0 16 -8 28 -19 27 -19 42 0 26 8 -7 15 -18 15 -24 0 -6 9 -17 20
-24 12 -7 20 -8 20 -2 0 5 -9 19 -20 30 -11 11 -20 24 -20 28 0 5 -12 19 -26
33 l-26 24 6 -22 c4 -13 3 -23 -3 -23 -9 0 -13 14 -27 93 -3 20 -11 37 -16 37
-6 0 -8 9 -5 20 3 11 1 20 -4 20 -5 0 -11 11 -15 25 -3 14 -10 25 -15 25 -5 0
-9 5 -9 11 0 5 6 7 13 3 9 -5 9 -4 0 6 -9 9 -9 15 0 25 7 7 16 12 22 12 5 -1
44 -71 87 -155z m-1367 89 c-4 -9 -9 -27 -11 -40 -7 -34 -12 -41 -32 -41 -12
0 -13 3 -5 8 6 4 10 20 9 34 -4 31 20 72 35 62 6 -3 7 -13 4 -23z m1548 -28
c-13 -2 -33 -2 -45 0 -13 2 -3 4 22 4 25 0 35 -2 23 -4z m-2797 -65 l29 -33
-32 29 c-31 28 -38 36 -30 36 2 0 16 -15 33 -32z m181 -104 c-3 -3 -12 -4 -19
-1 -8 3 -5 6 6 6 11 1 17 -2 13 -5z m1963 2 c0 -2 -8 -10 -17 -17 -16 -13 -17
-12 -4 4 13 16 21 21 21 13z m-497 -133 c-13 -2 -35 -2 -50 0 -16 2 -5 4 22 4
28 0 40 -2 28 -4z m1081 -19 c3 -8 2 -12 -4 -9 -6 3 -10 10 -10 16 0 14 7 11
14 -7z m4 -45 c28 -29 76 -189 53 -175 -6 4 -11 16 -11 27 0 29 -19 61 -32 53
-6 -4 -8 -3 -4 4 3 6 -1 17 -9 25 -8 9 -15 20 -15 25 0 5 -6 15 -14 22 -15 12
-11 40 5 40 4 0 17 -9 27 -21z m-1850 -6 c-10 -2 -26 -2 -35 0 -10 3 -2 5 17
5 19 0 27 -2 18 -5z m-206 -32 c15 4 29 4 32 1 3 -3 6 0 6 6 0 9 7 9 26 0 20
-9 27 -9 33 1 7 10 14 9 37 -5 21 -14 26 -15 20 -4 -7 12 -6 13 5 3 16 -15 33
-17 24 -3 -4 6 5 10 19 10 14 0 26 -4 26 -10 0 -5 6 -10 14 -10 14 0 33 -86
22 -98 -3 -3 -6 0 -6 7 0 8 -11 11 -32 7 -18 -3 -39 0 -47 7 -8 7 -12 7 -9 1
5 -6 -11 -11 -45 -11 -28 -1 -53 -6 -55 -12 -2 -7 -10 -8 -21 -1 -10 5 -21 6
-25 2 -4 -3 -17 -7 -29 -8 -42 -2 -87 -16 -81 -25 3 -5 -2 -9 -10 -9 -9 0 -16
4 -16 9 0 5 -7 12 -16 15 -11 4 -15 2 -11 -8 8 -20 -22 -29 -41 -14 -13 11
-15 10 -9 -4 4 -11 1 -17 -11 -17 -9 -1 -37 -2 -62 -3 -25 -1 -50 -6 -56 -12
-17 -16 -9 -51 12 -54 10 -2 23 -8 29 -13 16 -15 28 -10 15 7 -12 13 -10 14
16 2 16 -7 32 -17 35 -22 4 -5 10 1 14 13 5 18 9 20 21 10 8 -6 14 -18 14 -25
0 -8 8 -14 17 -14 9 0 25 -8 35 -17 18 -16 18 -16 12 3 -7 19 -7 19 15 0 22
-20 22 -20 16 0 -6 18 -6 18 12 -2 26 -29 32 -31 44 -14 7 11 8 9 4 -10 l-6
-26 80 -1 c66 0 78 2 74 15 -5 13 -3 13 18 -1 16 -10 47 -15 90 -14 36 0 71
-3 77 -7 7 -4 12 -3 12 2 0 5 36 9 80 8 45 -1 82 3 84 9 3 6 9 4 14 -4 7 -9
12 -10 16 -2 4 6 11 9 16 6 5 -3 18 -1 29 5 13 7 22 7 26 0 4 -6 11 -8 16 -4
5 3 16 0 24 -6 12 -10 15 -9 15 5 0 17 1 17 22 -1 12 -10 18 -14 15 -7 -9 15
26 27 53 18 11 -4 20 -2 20 4 0 6 7 7 17 4 11 -4 14 -3 9 5 -5 8 -2 10 8 6 9
-3 16 -10 16 -15 0 -6 10 -4 23 3 12 7 29 12 37 13 8 0 14 6 12 13 -1 8 2 11
8 7 6 -3 8 -10 5 -15 -2 -4 6 -10 20 -12 22 -5 24 -2 20 21 -5 25 -5 25 4 4
12 -26 34 -32 24 -6 -5 12 -3 14 8 9 8 -4 6 -1 -4 7 -17 14 -15 47 3 47 5 0 4
15 -2 33 -5 17 -10 40 -10 50 1 10 -5 17 -11 16 -15 -3 -87 18 -107 31 -8 5
-14 13 -12 17 1 4 -2 10 -8 11 -5 2 -10 -1 -10 -7 0 -14 -30 -3 -57 22 -31 28
-19 39 35 32 26 -3 67 -7 92 -9 57 -4 109 -16 135 -29 11 -6 27 -12 35 -14 26
-4 114 -15 130 -15 8 -1 18 -6 22 -12 6 -8 8 -7 8 1 0 9 9 8 35 -3 19 -8 35
-11 35 -8 0 4 6 1 14 -5 8 -7 20 -11 28 -10 10 2 82 -5 158 -16 3 0 11 -4 18
-8 7 -5 12 -4 12 2 0 6 5 11 11 11 5 0 7 -5 3 -12 -5 -7 -1 -9 12 -6 11 3 25
-1 32 -9 7 -7 18 -11 23 -7 5 3 17 0 25 -7 9 -7 29 -12 44 -11 16 1 32 -3 36
-9 5 -8 2 -10 -7 -5 -8 4 -6 1 4 -7 9 -8 17 -17 17 -20 0 -4 -8 -4 -17 -1 -10
2 -8 -1 5 -7 12 -7 22 -16 22 -21 0 -4 10 -8 23 -8 13 0 34 -10 47 -22 23 -22
38 -28 72 -31 9 -1 14 -5 12 -9 -3 -4 -1 -8 5 -8 6 0 15 -8 20 -19 10 -18 9
-18 -57 0 -127 36 -234 59 -295 65 -34 3 -69 10 -77 14 -8 4 -30 7 -47 5 -19
-1 -33 3 -33 9 0 7 -3 8 -8 1 -11 -16 -71 -12 -83 5 -9 13 -10 12 -6 -2 5 -13
0 -16 -19 -15 -14 1 -28 8 -33 15 -7 11 -9 11 -14 -1 -4 -10 -13 -13 -26 -10
-22 6 -45 -13 -47 -39 -1 -10 4 -14 12 -11 8 3 14 10 15 17 0 6 5 0 10 -14 8
-19 12 -21 19 -10 6 10 12 11 22 3 7 -6 20 -11 28 -11 81 -3 170 -16 194 -28
18 -9 33 -11 39 -5 5 5 22 5 40 0 18 -5 48 -9 67 -9 20 0 41 -5 48 -12 7 -7
12 -9 12 -5 0 4 10 3 21 -4 23 -12 30 -13 158 -29 47 -5 90 -15 95 -21 8 -7 4
-9 -14 -5 -24 5 -190 22 -293 30 -26 2 -50 6 -54 10 -3 3 -12 1 -19 -5 -8 -7
-14 -7 -19 1 -3 6 -11 8 -16 5 -5 -4 -97 -8 -205 -10 -120 -2 -200 -7 -207
-14 -7 -7 -16 -7 -30 0 -14 8 -18 8 -12 0 5 -8 -1 -10 -19 -5 -18 4 -26 2 -26
-7 0 -12 -2 -12 -9 0 -5 8 -19 12 -35 9 -14 -3 -26 -1 -26 3 0 5 -5 9 -11 9
-5 0 -7 -6 -4 -12 4 -7 0 -5 -8 5 -9 10 -18 14 -21 8 -5 -7 -41 -8 -41 0 0 1
-10 3 -22 4 -12 1 -20 -1 -18 -5 7 -12 -58 -19 -77 -8 -11 5 -18 5 -18 0 0
-13 -52 -22 -65 -12 -8 6 -60 6 -60 0 0 -1 -12 -3 -27 -5 -16 -2 -28 1 -28 6
0 13 -34 11 -48 -3 -10 -10 -17 -10 -32 0 -10 6 -22 8 -25 3 -3 -5 -17 -7 -33
-5 -15 2 -44 5 -65 8 -21 2 -40 6 -44 9 -3 4 -14 2 -24 -3 -11 -6 -20 -6 -24
-1 -6 11 -44 9 -64 -4 -9 -5 -12 -4 -8 2 10 16 -25 26 -35 11 -6 -11 -10 -10
-17 1 -6 10 -10 10 -16 1 -6 -9 -10 -9 -16 1 -5 8 -9 9 -9 3 0 -12 -128 -13
-147 -1 -6 4 -41 9 -77 11 -36 2 -70 7 -76 11 -5 3 -10 2 -10 -3 0 -5 -7 -9
-15 -9 -8 0 -15 4 -15 9 0 5 -4 7 -8 4 -7 -4 -88 5 -174 19 -16 3 -40 7 -55
10 -16 2 -46 5 -68 7 -22 1 -43 7 -47 12 -5 7 -8 6 -8 -3 0 -11 -3 -11 -15 -1
-8 6 -27 14 -42 15 -15 2 -47 6 -71 9 -24 3 -47 8 -52 11 -4 3 -10 -1 -12 -7
-3 -8 -9 -4 -17 10 -6 12 -16 22 -22 22 -6 0 -7 -4 -4 -10 9 -15 -14 -12 -31
4 -16 17 -50 14 -46 -4 1 -6 -2 -9 -7 -5 -6 3 -7 13 -4 23 6 14 4 15 -9 5 -8
-7 -18 -10 -21 -6 -4 3 -7 -1 -7 -10 0 -15 -3 -14 -20 3 -12 12 -25 18 -30 15
-5 -3 -7 0 -4 8 7 19 -16 34 -26 17 -6 -10 -12 -9 -26 5 -17 17 -17 17 4 11
12 -4 22 -3 22 2 0 12 -29 24 -39 17 -5 -2 -6 7 -3 20 2 14 -1 32 -8 40 -9 10
-9 15 -1 15 6 0 11 -5 11 -12 0 -6 3 -8 7 -5 3 4 13 1 22 -6 14 -10 14 -10 5
3 -9 12 -11 51 -5 79 1 2 7 -2 14 -8 10 -8 22 -5 47 14 37 27 45 30 35 15 -3
-6 1 -7 9 -4 9 3 16 10 16 15 0 5 12 4 26 -1 16 -7 23 -7 19 0 -3 6 0 10 7 11
40 2 73 12 77 21 2 6 7 5 12 -3 6 -10 9 -11 9 -1 0 6 7 12 15 12 8 0 15 -5 15
-12 0 -6 3 -8 7 -5 3 4 12 2 20 -5 11 -8 12 -7 7 6 -7 18 11 22 21 5 4 -6 14
-7 24 -3 25 10 101 14 101 5 0 -5 12 -11 26 -14 18 -3 24 -1 20 9 -3 7 0 16 6
20 6 4 8 3 4 -4 -11 -18 11 -23 28 -6 13 13 20 14 31 4 12 -10 15 -10 15 0 0
10 4 10 16 -1 13 -10 17 -10 25 2 7 12 9 12 9 -1 0 -9 10 -15 25 -15 14 0 25
3 25 6 0 4 29 6 65 4 36 -1 65 1 65 5 0 8 31 7 47 -3 6 -4 14 -3 17 2 3 4 17
9 31 10 52 3 56 4 50 19 -5 13 -3 13 17 0 15 -10 32 -12 50 -7z m1745 -83 c-3
-8 -6 -5 -6 6 -1 11 2 17 5 13 3 -3 4 -12 1 -19z m-1242 -48 c21 -22 37 -40
34 -40 -3 0 -23 18 -44 40 -21 22 -37 40 -34 40 3 0 23 -18 44 -40z m-450 -9
c-6 -5 -25 10 -25 20 0 5 6 4 14 -3 8 -7 12 -15 11 -17z m2000 -2 c9 -17 14
-33 12 -36 -4 -3 -37 53 -37 64 0 11 12 -1 25 -28z m-3125 7 c-7 -7 -13 -7
-20 0 -6 6 -3 10 10 10 13 0 16 -4 10 -10z m1086 2 c4 -6 2 -8 -4 -4 -5 3 -12
1 -14 -5 -2 -7 -8 -7 -15 3 -10 11 -8 14 7 15 11 1 23 -3 26 -9z m2167 -65
l15 -33 -23 18 c-13 9 -19 18 -15 20 5 2 6 11 3 20 -9 26 2 11 20 -25z m26
-112 c6 -21 11 -48 11 -59 0 -20 -1 -20 -45 4 -41 23 -95 76 -95 92 0 4 15 17
33 28 l32 22 26 -25 c14 -13 31 -41 38 -62z m-2142 3 c-3 -3 -12 -4 -19 -1 -8
3 -5 6 6 6 11 1 17 -2 13 -5z m2180 -91 c-3 -10 -5 -4 -5 12 0 17 2 24 5 18 2
-7 2 -21 0 -30z m-244 -60 c-7 -2 -21 -2 -30 0 -10 3 -4 5 12 5 17 0 24 -2 18
-5z"/>
<path d="M3097 5249 c4 -13 8 -18 11 -10 2 7 -1 18 -6 23 -8 8 -9 4 -5 -13z"/>
<path d="M1860 5180 c0 -5 5 -10 11 -10 5 0 7 5 4 10 -3 6 -8 10 -11 10 -2 0
-4 -4 -4 -10z"/>
<path d="M3420 3241 c0 -5 7 -15 17 -22 15 -13 15 -12 4 9 -12 23 -21 28 -21
13z"/>
<path d="M3550 3105 c7 -9 15 -13 17 -11 7 7 -7 26 -19 26 -6 0 -6 -6 2 -15z"/>
<path d="M3580 3086 c0 -8 103 -76 115 -76 5 0 -14 15 -42 34 -71 47 -73 48
-73 42z"/>
<path d="M2308 3423 c7 -3 16 -2 19 1 4 3 -2 6 -13 5 -11 0 -14 -3 -6 -6z"/>
<path d="M3640 2710 c65 -52 75 -59 78 -55 6 6 -35 43 -57 50 -12 3 -21 11
-21 16 0 5 -6 9 -12 9 -7 -1 -2 -10 12 -20z"/>
<path d="M4585 2780 c3 -5 10 -10 16 -10 5 0 9 5 9 10 0 6 -7 10 -16 10 -8 0
-12 -4 -9 -10z"/>
<path d="M3510 2092 c0 -5 7 -9 15 -9 8 0 12 4 9 9 -3 4 -9 8 -15 8 -5 0 -9
-4 -9 -8z"/>
<path d="M4527 2099 c7 -7 15 -10 18 -7 3 3 -2 9 -12 12 -14 6 -15 5 -6 -5z"/>
<path d="M4365 850 c3 -5 8 -10 11 -10 2 0 4 5 4 10 0 6 -5 10 -11 10 -5 0 -7
-4 -4 -10z"/>
<path d="M1300 680 c0 -5 5 -10 10 -10 6 0 10 5 10 10 0 6 -4 10 -10 10 -5 0
-10 -4 -10 -10z"/>
<path d="M3326 655 c4 -11 14 -26 22 -32 10 -8 11 -13 4 -13 -7 0 -12 -6 -12
-14 0 -8 -7 -17 -16 -20 -18 -7 -12 -19 11 -22 8 -1 15 4 15 12 0 9 5 12 10 9
12 -7 12 32 0 60 -5 11 -9 16 -9 11 -1 -6 -8 -1 -16 10 -15 19 -15 19 -9 -1z"/>
<path d="M3445 610 c-3 -5 1 -10 10 -10 9 0 13 5 10 10 -3 6 -8 10 -10 10 -2
0 -7 -4 -10 -10z"/>
<path d="M3416 595 c4 -8 13 -15 21 -15 12 0 12 2 -1 15 -8 8 -17 15 -20 15
-3 0 -3 -7 0 -15z"/>
<path d="M3387 585 c3 -8 9 -12 14 -9 12 7 11 11 -5 17 -10 4 -13 1 -9 -8z"/>
<path d="M3477 593 c-12 -11 -8 -19 12 -20 14 -1 18 3 14 13 -6 15 -16 18 -26
7z"/>
<path d="M3420 560 c0 -5 5 -10 11 -10 5 0 7 5 4 10 -3 6 -8 10 -11 10 -2 0
-4 -4 -4 -10z"/>
<path d="M3460 536 c0 -2 7 -6 15 -10 8 -3 15 -1 15 4 0 6 -7 10 -15 10 -8 0
-15 -2 -15 -4z"/>
</g>
</svg>
